<?xml version="1.0" encoding="utf-8"?>
<!-- Generator: Adobe Illustrator 26.2.1, SVG Export Plug-In . SVG Version: 6.00 Build 0)  -->
<svg version="1.1" xmlns="http://www.w3.org/2000/svg" xmlns:xlink="http://www.w3.org/1999/xlink" x="0px" y="0px"
	 viewBox="0 0 1000 1000" style="enable-background:new 0 0 1000 1000;" xml:space="preserve">
<style type="text/css">
	.st0{fill:#FFFFFF;}
	.st1{fill:#2E3192;}
	.st2{fill:#ED1B24;}
</style>
<g id="Layer_2">
	<circle class="st0" cx="500" cy="498.8" r="496.4"/>
</g>
<g id="Layer_1">
	<path class="st1" d="M466.3,4.8C499.4,3,532.7,3.6,565.6,8c63.2,8.3,124.1,28.8,179.5,60.3c85.6,48.5,156.3,123.1,199.8,211.4
		c49.9,99.5,63.9,216.2,40.4,324.8c-35.1,161.8-148.4,295.6-302.2,356.7c-107.5,42.9-230.1,46.3-339.8,9.5
		c-94.8-31.2-179.4-92.2-239.4-171.9c-32.8-43.2-58.2-91.5-75.2-143C4.2,582.7-2.2,503.8,8.8,427.5C42.9,196.5,233.4,20.5,466.3,4.8
		L466.3,4.8z M479.6,11.4C407.3,14,335.7,33.5,271.7,67.2c-67.6,35.8-125.9,86.8-170.3,149c-45.9,64.1-75.5,138.5-86.2,216.6
		C1.8,529,17.6,629.3,61.1,716.3c43.6,89,115.4,163.8,202.1,211.7c51.7,28.6,108.2,47.6,166.7,56c60.1,8.6,121.3,6,180.4-7.6
		c157-36.4,286-147.7,345.1-297.7c42.1-106.2,45-227.3,8.2-335.4C930.6,245,865.1,158,779.8,98.8C693,37.7,585.6,6.4,479.6,11.4z"/>
	<path class="st1" d="M495.4,174.5c4.6,6.8,9,13.9,14,20.4c11.2,15.6,22.1,32.4,24,51.9c0.1,7.1-0.1,14.1-0.4,21.2
		c-0.1,2.1-0.3,4.2-0.7,6.3c-2.2,6.5-4,13.2-7.5,19.2c-3.3,5.5-7.4,10.5-12.3,14.7c4.1,0.5,9.3-1.3,12.7,1.1
		c0.6,6.1-0.3,12.2-0.2,18.3c10.4,3.2,19.8,8.7,28.6,14.8c4.6-4.5,9.1-9.1,13.7-13.7c6,4.7,11.2,10.4,16.3,16.1
		c-4.3,5-9.2,9.4-13.6,14.3c10,13.1,16.5,28.6,18.7,45c6.6-0.1,13.2,0,19.8,0.2c0.3,7.6,0.2,15.1-0.3,22.7c-6.6,0.1-13.1,0-19.7,0.2
		c-2.1,16.5-8.9,31.9-18.6,45.3c4.5,4.7,9.3,9.2,13.4,14.4c-5,5.6-10.5,10.8-16.2,15.6c-4.5-4.5-8.9-9.1-13.5-13.6
		c-11.3,8-23.8,14.3-37.4,17.3c-1,12.2-0.8,24.4-2.4,36.5c-11.5,0-23.1,0-34.6,0c-1.3-12.1-0.7-24.3-1.9-36.4
		c-13.3-3.4-26.2-8.9-37.1-17.4c-5.3,4.3-9.8,9.3-15.3,13.4c-5.4-5.1-10.4-10.6-15.1-16.3c4.3-4.7,9.1-9,13.7-13.5
		c-9.7-13.2-16.7-28.6-18.5-45.1c-6.6-0.5-13.3-0.7-20-0.7c-0.5-7.6,0.1-15.2,0.3-22.7c6.5-0.2,13.1,0.2,19.6-0.2
		c1.9-14.8,7.4-28.8,16.1-41c0.7-1.5,2.9-3.3,1.3-5c-3.8-4.8-8.4-9.1-12-14.1c5.2-4.9,10.2-10,15.9-14.4c5.7,2.4,9,8.8,13.4,13
		c9.8-6.1,19.7-12.3,31-15.4c-0.1-6.2-0.2-12.4-0.2-18.6c3.7-0.1,7.5-0.1,11.3-0.1c-4.9-4.1-9.9-8.3-13.5-13.7
		c-4-5.7-5.8-12.5-7.7-19.1c-0.4-1.9-0.6-3.9-0.6-5.9c0.3-6.9-0.2-14.1,2.5-20.6c2.5-5.5,5.5-10.7,7.9-16.3
		c4.2-9.9,10.5-18.7,15-28.4C489.9,194.8,493.4,184.8,495.4,174.5z M486.1,214.9c-7.3,13.4-16.8,26.1-19.5,41.5
		c-1,10-0.5,20.3,3.5,29.6c4.9,11.6,15.6,19.4,26.2,25.5c6.5-39.1,4.7-79.2-0.8-118.4C492.5,200.4,490.2,208,486.1,214.9
		L486.1,214.9z M502,192.9c0.7,10.4,3.1,20.5,3.5,30.9c2.8,28.5,1.3,57.3-2.4,85.7c5.2-3.8,9.7-8.4,13.4-13.7
		c9.6-13.9,12-31.5,10.8-48C525.5,227.2,514.3,209,502,192.9L502,192.9z M434.8,389.7c-5.8,14.1-7.1,30.3-2.5,44.9
		c6.3,21.4,22.8,38.2,44,45c-0.2-23.2-1.6-46.3-2.2-69.5c-1.2-18.8-1-37.6-2.3-56.4C455,359.6,441.8,373.6,434.8,389.7L434.8,389.7z
		 M523.6,354.2c-2.2,41.8-4,83.5-6.1,125.3c17.2-5.1,31.8-18,39.6-34c9.1-18.2,9.4-39.6,0.7-57.9
		C550.8,372.6,538.6,360.8,523.6,354.2L523.6,354.2z"/>
	<path class="st1" d="M148.8,183.4c1.3-1.7,3.8-1,5.7-1.3c31.6,0.2,63.3-0.2,94.9,0.2c-2.1,2.1-4.4,4.1-6.7,5.9
		C170.4,248,119.8,333.5,103.2,425.8c-40.3,219.6,105,430.3,324.6,470.6c13.9,2.5,27.9,4.4,41.9,5.4c58.4,4.3,117.9-3.9,172.6-24.9
		c93.4-35.1,172.4-106.3,217.4-195.3c28.6-56,43.6-118,43.6-181c0.7-54.9-10.7-109.7-32.3-160.2c-23.4-54.4-58.3-103-102.4-142.5
		c-5.5-5.6-12.3-9.8-17.7-15.5c33.1-0.5,66.3-0.2,99.4-0.1c32.8,36.8,60.5,78.5,80.6,123.6c46.7,103.2,54.1,223.5,20.5,331.7
		c-23.7,77-66.7,146.7-124.9,202.4c-60.3,58.1-136.3,99.9-217.9,119.1c-100.8,24.1-209.6,13.7-303.8-29.8
		C212,887.1,133.7,814,85.2,724.3c-28.6-52.4-46.9-109.7-53.9-169c-11.3-92.4,5.5-188,48.1-270.7C98.1,248,121.4,214,148.8,183.4z"
		/>
	<path class="st2" d="M466.3,51.1c2-9.9,11.8-15.5,20.4-18.9c-4.2,5.2-10.6,10.6-8.3,18.1c3.2,5.6,8.7,9.1,13.3,13.4
		c5.9,5.4,13.5,10.1,15.8,18.2c3.5,11.8-2.8,23.6-2.3,35.6c2.8-6.9,4.4-14.6,9.3-20.5c3.5-4,7.6-7.4,11.5-11
		c-0.1,4.8-1.9,9.4-2.2,14.2c-0.8,11.2,3.8,21.9,5.2,32.9l2.8-0.2c2.8-3.7,4.5-8,5-12.5c0.8-5.2,1.5-11.7,7.1-13.9
		c0,7-1,14.1,0.7,21c3.6,17.8,12.8,33.7,18.8,50.7c3.4,9.1,5.6,19.1,3.5,28.8c-3.3,11.3-9.4,21.5-17.8,29.7
		c-4.5,4.3-9.3,9-15.6,10.2c-2-19.5-12.9-36.4-24-51.9c-1.5-8.5-2.8-17.5-0.1-26c1.5-5.4,4.8-10.8,3.5-16.6
		c-2.6-13.1-11.7-23.4-18.3-34.6c0.8,8.3-0.1,16.7-2.4,24.7c-3.6,13.2-12,25-13.3,38.9c-0.4,8.2,3.1,15.7,6.5,22.9
		c-4.5,9.7-10.8,18.5-15,28.4c-2.4,5.6-5.4,10.8-7.9,16.3c-1-3.4-4.6-4.6-7.3-6.4c-16.5-10.2-29.5-28-29.7-47.9
		c0.8-18.6,11.9-34.8,13.9-53.2c1.6-9.3,0.1-18.9-2.1-28.1l2.1-0.6c5,2.9,10.1,6.7,11.8,12.5c2.9,9.7,3,19.9,5.7,29.6
		c4.3-15.5-1.2-32.1,4.7-47.2c1.9-6.2,6.5-11.1,11.8-14.5c2.9-2.2,7.2-4.5,6.5-8.8C477.4,72.4,464.5,64.1,466.3,51.1z M437.3,170.1
		c-2.1,9.5-4.2,19.6-1.5,29.2c3.2,0.9,7,1.4,8.7,4.7c3.5,6,4.2,13.1,4.9,19.9c1-5.3,1.5-10.7,2.1-16c0.6-9.8-4.4-18.6-7.5-27.6
		c-2.5-6.7-1.2-14-1.8-21C439.1,162.2,438.4,166.4,437.3,170.1z"/>
	<path class="st2" d="M533,268.1c49.5-10.6,102.5-11.7,150.6,6c20.1,7.4,38.7,18.3,55,32.2c5.2,4.1-0.8,10.6-2.3,15.2
		c4.6,5.5,11.9,7.8,16.7,13c-0.4,3.2-1.7,6.1-2.7,9.1c3.8,3,8.1,5.2,11.7,8.5c0.2,1.5-0.1,3.1-0.9,4.5
		c-39.3,78.5-78.6,157.1-117.9,235.6c-19-7.5-37.7-15.8-57.1-22c-33-11.5-68-18.2-103.1-17.2c-33.1,1.1-65.6,9.1-96.4,21.1
		c-9.4,3.2-18.2,8-27.7,11.3c-40-77.8-79.9-155.5-119.9-233.3c-0.8-2.1-2.7-4.3-1.5-6.5c3.7-2.3,7.7-4.2,11.4-6.5
		c-1.2-3.5-2.6-6.9-3.7-10.4c5.9-3.5,11.8-7,18-9.9c-1.2-4.3-3.4-8.3-4.6-12.6c-0.8-1.9,0.9-3.1,2.2-4.1
		c36.3-26.8,81.9-38.3,126.5-38.9c24.4-0.3,48.7,1.8,72.7,6.2c0,2,0.2,4,0.6,5.9c-13-0.5-25.6-3.8-38.6-4.4
		c-43.7-4.1-89,0.7-129.1,19.4c-9.5,4.8-18.6,10.2-27.4,16.1c36.1,87.2,71.6,174.6,107.6,261.7c13.3-4.4,26.2-9.9,39.9-13
		c41.4-11.1,85.2-11.7,127.4-4.7c24.9,3.9,49.3,10.9,73.1,19.5c4,1.5,8.1,2.8,12.2,3.9c8.8-19,15.8-38.9,24.2-58.1
		c20.5-50.9,41.7-101.6,62.2-152.5c7.4-17.5,14.2-35.3,21.8-52.8c-33.8-28.5-78-42-121.7-43.6c-12.5-0.1-24.9-0.5-37.3,1.2
		c-14.4,1-28.4,4.2-42.6,6.1C532.8,272.3,533,270.2,533,268.1z M255.6,330.4c-1.5,0.9-2,2.8-1.1,4.3c0.1,0.1,0.2,0.3,0.3,0.4
		c14,29.9,28.3,59.7,42.3,89.6c23.4,49.2,46.3,98.6,70.1,147.7c-1.8-6.6-4.9-12.7-7.4-19C328.7,477,297,400.8,266,324.4
		C262.5,326.4,258.9,328.1,255.6,330.4z M733.6,329.1c-12.3,28.8-23.7,58-35.7,86.9c-21.4,52.8-43.1,105.4-64.5,158.1
		c-0.2,1-0.5,3.1-0.6,4.2c4.3-0.9,5.2-5.6,7-8.9c34.6-76.1,69.3-152.3,104.1-228.4c0.5-1.5,1.4-3.1,0.9-4.7
		C741.5,333.3,737.7,330.9,733.6,329.1z M245,348.9c0.9,2.1,1.9,4.2,3,6.3c29.7,57.7,59.2,115.5,89.1,173.1c0.7,1.2,1.5,2.3,2.4,3.3
		c-0.9-3.1-2-6.2-3.5-9.1c-20-42.5-40.1-84.9-60.1-127.4c-8.3-16.5-15.2-33.7-24.2-49.8C249.5,346.5,247.3,347.7,245,348.9z
		 M746.9,350.2c-5,9.6-8.9,19.7-13.5,29.4C709.1,432.5,685,485.5,661,538.5c-2.1,4.7-4.5,9.2-6,14.1c4.1-5.5,6.4-12.1,9.7-18
		c30.1-59.7,60.1-119.4,89.8-179.3C752.5,352.9,749.9,351.1,746.9,350.2z"/>
	<path class="st2" d="M228.3,399.1c5.2-2.3,11.7-1.4,15.3,3.1c2.6,2.6,2.1,6.6,1.7,9.9c-4.1,9.2-14.9,10.8-23.2,14.1
		c-27.6,11-55.3,21.4-83,32.2c-5,2.2-11.2,2.5-15.4-1.4c-4-2.4-3.4-7.6-2.8-11.5c3.4-7.7,12.2-9.4,19.2-12.4
		C169.6,422,198.7,410.1,228.3,399.1z"/>
	<path class="st2" d="M763.1,398.9c5.5-2.7,11.3,0.5,16.4,2.5c28.2,11,56.5,21.8,84.7,32.7c5.7,2.3,13.1,3.6,15.8,9.9
		c2.3,4.3,1.7,10.3-2.5,13.3c-3.6,3.4-9.1,3.3-13.5,1.6c-33-12.9-66-25.6-99.1-38.2c-5-2.4-9.6-7.3-8.7-13.2
		C755.8,403.3,759.5,400.3,763.1,398.9z"/>
	<path class="st2" d="M245.4,431.6c7.4-2.8,16.9,1.2,18.6,9.2c0.6,5.8-2.4,11.3-7.4,14.1c-7.3,3.8-15.2,6.2-22.9,9.1
		c-28.4,11.2-57,21.7-85.5,32.7c-6.5,2.7-13.7,5.1-20.7,2.8c-3.6-2.4-7.1-6.2-6.8-10.8c-0.1-7.1,6.1-12.6,12.5-14.7
		C170.6,460,207.8,445.4,245.4,431.6z"/>
	<path class="st2" d="M745.7,431.8c5.7-2.4,11.8,0.1,17.2,2.1c32.1,12.2,64.1,24.3,96.2,36.6c6.4,2.7,13.8,4.1,18.7,9.3
		c3.6,3.5,3.2,9,2.4,13.5c-3.8,7.8-13.8,8.3-21,5.4c-36.8-13.8-73.5-28-110.3-41.8c-6.4-1.9-11.8-7.7-11-14.8
		C737.1,437.1,741.5,433.5,745.7,431.8z"/>
	<path class="st2" d="M256.3,468.4c5.8-1.2,12.9-1,16.9,4c6.4,6.6,2.5,18-5.2,21.7c-9.3,4.4-19.3,7.1-28.8,11.3
		C208,517,176.9,529,145.9,540.9c-6.1,2.3-14.1,3.1-19.2-1.7c-5.4-4.1-5.4-12.5-1.8-17.8c3.8-4.6,9.6-6.9,15-8.8
		c8.6-3,17-6.5,25.4-10C195.8,491.7,225.9,479.6,256.3,468.4z"/>
	<path class="st2" d="M735.1,468.2c3.8-0.7,7.7-0.5,11.4,0.6c39.5,15,79.1,30,118.6,45c6.6,2.1,13.5,7.2,14,14.6
		c1.1,7.4-5.6,14.2-12.8,14.2c-6,0.6-11.4-2.3-16.8-4.3c-35.6-13.6-71.3-27-106.9-40.6c-5.9-2.2-13.1-4.2-15.7-10.6
		C722.9,479.9,727,470.1,735.1,468.2z"/>
	<path class="st2" d="M270.8,505.6c5.2-0.9,11.4-1,15.4,3c6.2,4.5,6.6,14.6,1.3,19.9c-3.8,4.4-9.3,6.3-14.5,8.3
		c-40.4,15.3-80.9,30.5-121.2,46c-7.3,2.6-17.2,1.2-21.2-6.2c-3.6-7.9,0.6-17.3,8.3-20.9c16-7,32.8-12.1,48.9-18.9
		C215.6,526.8,243,515.7,270.8,505.6z"/>
	<path class="st2" d="M720.5,505.7c3.9-0.8,7.9-0.7,11.7,0.3c42.6,16.3,85.4,32.3,127.9,48.7c4.2,1.7,8.2,4.3,10.4,8.4
		c3.1,5.2,2.8,12.8-2.2,16.8c-5.6,5.3-14.2,5-20.8,2.1c-14.5-5.9-29.3-11-43.8-16.9c-26.8-9.3-53.1-20.2-79.8-30
		c-5.4-1.9-10.5-5.6-12.5-11.2C708.3,516.7,713,507.4,720.5,505.7z"/>
	<path class="st2" d="M287,542.8c8.5-3.7,20.4-0.1,23.4,9.3c2.8,8.8-3.6,17.8-11.7,20.9c-19.9,7.8-39.9,15.1-59.8,22.8
		c-9.1,3.2-18,7.3-27.3,9.9c-0.2,0.5-0.5,1.5-0.7,2c27.5-7.6,55-15.1,82-24.2c3.2-1.3,6.7-1.6,10.1-0.9
		c27.2,6.4,54.2,14.6,79.4,26.9c13.9,7.3,28,16.2,36.6,29.7c4.5,6.7,6,14.9,6.5,22.8c1.1,9.6,1.2,19.2,0.3,28.8
		c-1.1,26.8-4.9,53.4-8.6,80c-5.4,36.9-12.1,73.5-18.6,110.2c-10.1-1.4-19.3-5.8-28.9-8.9c-20.6-7.8-40.5-17.1-59.6-28
		C291,834,273.2,821.6,254.9,810c-0.2-8.8,1.4-17.4,2.4-26.1c1-10.9,2.7-21.7,3.4-32.6c1.9-13.6,2.5-27.4,5.4-40.9
		c1.3-5.5,2.7-11.4,6.8-15.6c6.3-6.4,14.7-11.1,24-10.9c19.3,0.8,37,9.5,56.1,11.8c-7.3-4.5-15.7-6.7-23.7-9.9
		c-55-21.2-112.6-34.9-167.2-57c-7-3.2-15.9-0.7-22-6.1c-6-5.7-5.3-16.2,0.4-21.9c4.9-5.5,12.4-7.3,19-9.8
		C202,575.2,244.5,558.8,287,542.8z"/>
	<path class="st2" d="M694.8,546c5.6-4.7,13.4-5.9,20.2-3c44.1,16.5,88,33.5,132.1,50c5,1.7,10,3.7,13.8,7.6
		c6.3,5.6,6.8,17,0.1,22.5c-5.3,4.8-12.9,3.2-19.3,5c-62.2,25.6-128.6,39.7-190.5,66.2l-2.1,1.5c18.5-2.5,36-10.6,54.8-11.9
		c12.4-0.1,25.8,7.4,29.2,20c3.9,14.5,4.1,29.5,5.9,44.3c1.9,20.9,4.4,41.6,6.5,62.5c-5.2,4-10.6,7.6-16.3,10.7
		c-24.8,15.7-50.5,30.3-77.5,42c-16,6.5-31.9,13.6-48.7,17.8c-10.4-57.3-21.1-114.7-26.2-172.8c-1.7-13.7-1.5-27.6-1.3-41.4
		c0.3-9.9,2.1-20.4,7.7-28.8c8.5-13.4,22.8-21.3,36.3-28.7c24.8-12.2,51.5-20.1,78.3-26.6c6.9-1.9,13.4,1.9,19.8,3.8
		c22.5,6.9,45.1,13.4,67.8,19.9c2,0.6,4,0.9,6.1,0.7c-28.4-11.9-57.7-21.7-86.3-33.2c-6-2.3-12.2-6.2-14-12.7
		C689.2,556.1,690.9,549.9,694.8,546z"/>
</g>
</svg>
